<?xml version="1.0" encoding="utf-8"?><svg width="137" height="57" viewBox="0 0 137 57" fill="none" xmlns="http://www.w3.org/2000/svg">
<rect width="12" height="60" transform="matrix(-0.82255 -0.568692 -0.568692 0.82255 49.9921 6.82431)" fill="#00B0FF"/>
<rect x="6" y="6.82431" width="12" height="60" transform="rotate(-34.6591 6 6.82431)" fill="#18FFFF"/>
<path d="M59.95 12.0164V12.0664H60H66.7077V49V49.05H66.7577H73.1223H73.1723V49V12.0664H79.8554H79.9054V12.0164V7V6.95H79.8554H60H59.95V7V12.0164Z" fill="white" stroke="white" stroke-width="0.1"/>
<path d="M96.5304 7.09836L96.5339 7.04848C95.5991 6.98284 94.7378 6.95 93.9501 6.95H87.045H86.995V7V49V49.05H87.045H93.2866H93.3366V49V33.3369H95.635L101.201 49.0167L101.213 49.05H101.248H107.982H108.056L108.028 48.9814L101.312 32.2291C103.089 31.3365 104.434 29.8917 105.349 27.8979L105.349 27.8978C106.27 25.8726 106.729 23.2583 106.729 20.0574V19C106.729 17.0951 106.524 15.475 106.113 14.141C105.702 12.7925 105.151 11.6721 104.458 10.781C103.783 9.89109 103 9.18982 102.109 8.67806C101.237 8.16773 100.324 7.78896 99.3693 7.54189C98.4325 7.27877 97.4873 7.11428 96.5338 7.04848L96.5304 7.09836ZM96.5304 7.09836C97.4805 7.16393 98.4225 7.32787 99.3563 7.59016L87.095 7H93.9501C94.7365 7 95.5966 7.03279 96.5304 7.09836ZM98.9506 13.181L98.9512 13.1817C99.4196 13.6827 99.7518 14.3223 99.9467 15.1023C100.142 15.8841 100.24 16.8143 100.24 17.8934V21.2131C100.24 22.6206 100.134 23.8052 99.9219 24.7678C99.7101 25.713 99.3688 26.4758 98.8999 27.0585C98.4314 27.6242 97.8173 28.0288 97.0558 28.272C96.2922 28.5159 95.3557 28.6385 94.245 28.6385H93.3366V11.6975H94.245C95.4051 11.6975 96.3661 11.8202 97.1295 12.064C97.8926 12.3077 98.4988 12.6805 98.9506 13.181L98.9506 13.181Z" fill="white" stroke="white" stroke-width="0.1"/>
<path d="M121.741 6.95H121.699L121.691 6.99094L113.951 48.9909L113.94 49.05H114H120.463H120.506L120.512 49.0073L121.612 41.5254H129.193L130.341 49.0076L130.348 49.05H130.391H136.829H136.889L136.878 48.9909L129.113 6.99091L129.105 6.95H129.064H121.741ZM125.323 15.8041H125.506L128.441 36.6303H122.363L125.323 15.8041Z" fill="white" stroke="white" stroke-width="0.1"/>
</svg>
